<svg viewBox="0 0 202 210" 
  xmlns="http://www.w3.org/2000/svg" 
  xmlns:xlink="http://www.w3.org/1999/xlink">
  <defs>
    <path d="M338 602v140.235c0 4.82 3.952 8.765 8.783 8.765h184.434c4.83 0 8.783-3.944 8.783-8.765V602H338zm44 131h-26v-26h26v26zm0-34h-26v-26h26v26zm0-35h-26v-26h26v26zm35 69h-26v-26h26v26zm0-34h-26v-26h26v26zm0-35h-26v-26h26v26zm35 69h-26v-26h26v26zm0-34h-26v-26h26v26zm0-35h-26v-26h26v26zm35 69h-26v-26h26v26zm0-34h-26v-26h26v26zm0-35h-26v-26h26v26zm35 69h-26v-26h26v26zm0-34h-26v-26h26v26zm0-35h-26v-26h26v26zm18-96.5V594H338v-26.5c0-4.858 3.952-8.833 8.783-8.833h17.565v-8.834c0-4.858 3.952-8.833 8.782-8.833h8.783c4.83 0 8.783 3.975 8.783 8.833v8.834h96.608v-8.834c0-4.858 3.953-8.833 8.783-8.833h8.783c4.83 0 8.782 3.975 8.782 8.833v8.834h17.565c4.83 0 8.783 3.975 8.783 8.833z" id="a"/>
  </defs>
  <use fill="#61DAFB" fill-rule="nonzero" xlink:href="#a" transform="translate(-338 -541)"/>
</svg>